<svg width="512" height="512" viewBox="0 0 512 512" fill="none" xmlns="http://www.w3.org/2000/svg">
<path d="M206.419 428.17C210.732 428.17 212.888 429.788 212.888 432.483C212.888 436.796 211.81 441.108 209.654 443.804C207.497 447.038 204.802 448.117 201.567 448.117C197.255 448.117 195.098 446.499 195.098 443.265C195.098 438.952 196.176 435.179 198.333 431.944C200.489 429.788 203.185 428.17 206.419 428.17ZM208.575 410.92C200.489 410.92 194.559 411.998 190.247 413.615C185.934 415.232 182.699 418.467 180.004 423.319C178.387 426.553 176.77 430.866 175.691 435.179C174.613 440.03 173.535 444.343 173.535 447.577C173.535 451.351 174.613 454.586 176.23 456.742C177.848 458.898 180.543 460.515 184.317 461.594C188.09 462.672 193.481 463.211 199.95 463.211C204.802 463.211 208.575 462.672 211.81 462.133C215.044 461.594 217.74 460.515 220.435 459.437C223.131 458.359 224.748 456.742 226.904 454.586C228.522 452.429 230.139 450.273 231.217 447.577C232.295 444.343 233.912 440.569 234.452 436.257C235.53 431.944 235.53 428.17 235.53 425.475C235.53 421.701 234.991 418.467 232.834 416.311C231.217 414.154 228.522 412.537 224.748 411.459C220.435 411.459 215.044 410.92 208.575 410.92ZM104.532 425.475V442.726H94.2897L104.532 425.475ZM88.3598 412.537L59.7883 461.594H82.4299L86.2035 455.125H103.993V461.594H124.478V412.537H88.3598ZM319.627 412.537L307.228 462.133H328.252L341.19 412.537H319.627ZM243.077 412.537L230.139 462.133H250.624L258.171 433.561L260.327 462.133H272.187L288.899 434.1L281.352 462.133H301.837L314.775 412.537H286.203L271.648 439.491L270.031 412.537H243.077ZM132.026 412.537L127.174 429.249H140.112L132.026 462.133H153.05L161.675 429.249H174.074L178.387 412.537H132.026ZM372.457 411.459C364.91 411.459 358.98 412.537 354.667 413.615C350.354 415.232 347.12 417.928 344.425 421.162C342.268 424.397 340.651 428.17 339.034 433.561C337.956 438.413 336.877 443.804 336.877 448.656C336.877 451.89 337.416 455.125 339.034 457.281C340.651 459.437 342.807 461.055 346.042 462.133C349.276 463.211 353.589 463.75 358.441 463.75C362.753 463.75 367.066 463.211 371.379 462.672C375.691 462.133 379.465 461.055 382.7 459.976L385.934 444.882C378.926 446.499 372.996 447.577 368.683 447.577C365.449 447.577 363.292 447.038 361.675 446.499C360.597 445.96 359.519 444.343 359.519 442.187C359.519 437.874 361.136 434.639 364.371 432.483C367.605 430.327 371.918 429.249 378.387 429.249C381.621 429.249 385.395 429.788 389.708 430.866L394.02 413.615C389.708 412.537 385.934 411.998 382.7 411.998C380.004 411.459 376.23 411.459 372.457 411.459ZM429.061 410.92C425.287 410.92 422.053 410.92 418.818 411.459C415.584 411.998 412.888 411.998 410.193 412.537C407.497 413.076 405.88 414.154 403.724 414.693C401.028 415.772 398.872 418.467 396.716 422.241C395.098 426.014 394.02 429.788 394.02 434.639C394.02 438.413 395.637 441.648 398.333 443.265C399.95 444.343 401.567 444.882 403.185 444.882C404.802 444.882 408.036 445.421 412.349 445.421H418.818C420.435 445.421 420.974 445.96 420.974 447.038C420.974 449.195 416.662 450.273 408.036 450.273C403.185 450.273 397.255 449.734 390.786 448.656L387.551 461.594C393.481 462.672 398.333 463.211 403.185 463.75H411.81C420.974 463.75 427.983 462.672 433.373 461.055C437.147 459.976 439.842 457.281 441.999 454.046C444.155 450.812 445.233 446.499 445.233 441.648C445.233 440.03 444.694 438.413 444.155 437.335C443.616 436.257 442.538 434.639 441.46 434.1C440.381 433.022 438.764 433.022 437.686 432.483C436.608 432.483 434.452 431.944 431.217 431.944H420.974C418.818 431.944 417.74 431.405 417.74 429.788C417.74 427.631 422.053 426.553 431.217 426.553C435.53 426.553 441.46 427.092 447.929 427.631L451.702 412.537C449.546 411.998 447.39 411.998 445.772 411.459C443.616 411.459 441.46 410.92 438.225 410.92H429.061Z" fill="#13306C"/>
<path d="M314.221 354.173H319.612C322.846 354.173 325.003 354.173 325.542 354.712C326.62 355.251 326.62 355.79 326.62 357.407C326.62 358.485 326.62 359.563 326.081 360.642C325.542 361.72 325.003 362.259 324.464 362.798C323.925 363.337 323.386 363.337 321.768 363.337H312.065L314.221 354.173ZM386.997 352.555L387.536 369.806H376.755L386.997 352.555ZM336.324 339.617H295.892L282.954 388.674H305.057L308.83 373.58L318.534 388.674H364.895L369.208 381.666H386.997V388.674H408.022V339.617H371.903L342.792 388.135L330.933 369.806C334.167 369.806 336.863 369.806 338.48 369.267C340.097 368.728 341.714 367.65 343.332 366.032C344.949 364.415 346.027 362.259 347.105 359.563C348.183 356.868 348.722 353.633 348.722 350.938C348.722 347.164 347.644 344.469 346.027 342.852C343.871 340.695 340.636 339.617 336.324 339.617ZM423.116 339.617L410.178 389.213H451.687L456 371.962H435.515L444.14 339.617H423.116ZM241.445 339.617L228.507 389.213H277.563L281.337 376.275H252.226L253.844 370.884H282.415L285.111 361.181H256L257.617 355.251H286.728L290.501 339.617H241.445ZM178.911 339.617L165.973 389.213H186.997L193.466 363.337L199.935 389.213H223.116L235.515 339.617H214.491L207.482 367.65L201.553 339.617H178.911ZM124.464 339.617L111.526 389.213H161.121L164.356 376.275H135.245L136.863 370.884H165.434L168.129 361.181H139.019L140.636 355.251H169.747L173.52 339.617H124.464ZM93.1968 338C85.6496 338 79.7197 338.539 74.8679 340.156C70.0162 341.774 66.7817 343.93 64.6253 347.164C63.0081 349.321 61.9299 351.477 60.8518 354.173C59.7736 356.868 58.6954 360.642 57.6172 365.493C56.5391 369.806 56 373.04 56 375.197C56 380.588 57.6173 384.361 61.9299 386.518C65.7035 389.213 72.1725 390.291 80.2588 390.291C84.5714 390.291 88.8841 389.752 93.7359 389.213C98.0485 388.674 102.361 387.596 106.135 386.518L112.065 364.415H90.5014L87.2669 377.353C85.6496 377.892 85.1105 377.892 84.5714 377.892C80.7979 377.892 78.6415 375.736 78.6415 371.423C78.6415 365.493 80.2588 361.181 83.4933 358.485C86.7278 355.79 92.1186 354.173 99.1267 354.173C103.439 354.173 108.291 354.712 114.221 355.79L117.995 340.695C114.76 339.617 110.987 339.078 106.674 338.539C102.361 338 98.0485 338 93.1968 338Z" fill="#13306C"/>
<path d="M256.046 48L218.832 110.023L255.092 171.092L194.023 135.786L132 173L194.023 210.214L255.092 173.954L218.832 236.931L256.046 298L292.305 236.931L257 173.954L318.069 210.214L380.092 173L318.069 135.786L257 171.092L292.305 110.023L256.046 48Z" fill="#13306C"/>
</svg>
